<?xml version="1.0" standalone="no"?>
<!DOCTYPE svg PUBLIC "-//W3C//DTD SVG 20010904//EN"
 "http://www.w3.org/TR/2001/REC-SVG-20010904/DTD/svg10.dtd">
<svg version="1.0" xmlns="http://www.w3.org/2000/svg"
 width="16.000000pt" height="16.000000pt" viewBox="0 0 16.000000 16.000000"
 preserveAspectRatio="xMidYMid meet">
<metadata>
Created by potrace 1.11, written by Peter Selinger 2001-2013
</metadata>
<g transform="translate(0.000000,16.000000) scale(0.010667,-0.010667)"
fill="#000000" stroke="none">
<path d="M591 973 c-30 -142 -69 -329 -87 -415 -19 -87 -34 -164 -34 -173 0
-13 35 -15 297 -13 l297 3 12 40 c6 22 14 57 18 78 l7 37 -199 0 c-109 0 -201
2 -204 5 -3 3 10 76 28 163 18 86 49 233 69 326 19 93 35 177 35 188 0 16 -9
18 -93 18 l-93 0 -53 -257z"/>
</g>
</svg>
